# xmcd
#
# Track frame offsets:
#	150
#	11762
#	24060
#	35732
#	47642
#	60245
#	73747
#	82260
#	92955
#	114975
#	126695
#	139615
#	151845
#	162722
#	174917
#	184735
#	197755
#	209647
#	223227
#	233570
#
# Disc length: 3249 seconds
#
# Revision: 0
# Processed by: cddbd v1.5.2PL0 Copyright (c) Steve Scherf et al.
# Submitted via: dBpowerAMP V4.0
#
DISCID=210caf14
DTITLE=The Platters - Série 20 Super Sucessos
DYEAR=2004
DGENRE=Soul
TTITLE0=Only You
TTITLE1=Twilight Time
TTITLE2=The Great Pretender
TTITLE3=Smoke Gets In Your Eyes
TTITLE4=Remember When
TTITLE5=Alone In The Night
TTITLE6=Sentimental Journey
TTITLE7=Red Sails In The Sunset
TTITLE8=Unchained Melody
TTITLE9=My Dream
TTITLE10=Enchanted
TTITLE11=So Many Tears
TTITLE12=The Magic Touch
TTITLE13=My Prayer
TTITLE14=If You Need Me
TTITLE15=I'm Sorry
TTITLE16=With This Ring
TTITLE17=Harbour Lights
TTITLE18=He's Mine
TTITLE19=One In A Million
EXTD=
EXTT0=
EXTT1=
EXTT2=
EXTT3=
EXTT4=
EXTT5=
EXTT6=
EXTT7=
EXTT8=
EXTT9=
EXTT10=
EXTT11=
EXTT12=
EXTT13=
EXTT14=
EXTT15=
EXTT16=
EXTT17=
EXTT18=
EXTT19=
PLAYORDER=
